<svg xmlns="http://www.w3.org/2000/svg" fill="none" viewBox="0 0 40 40"><title>OpenClassrooms</title><rect width="40" height="40" fill="#7451eb" rx="4"/><path fill="#fff" d="M31.2 20.198c0 2.62-.72 5.188-2.08 7.421a14.15 14.15 0 0 1-5.624 5.233A14.03 14.03 0 0 1 8.8 31.688l4.765-5.715a6.7 6.7 0 0 0 6.811.144 6.75 6.75 0 0 0 2.522-2.486 6.81 6.81 0 0 0 0-6.86 6.75 6.75 0 0 0-2.522-2.486 6.7 6.7 0 0 0-6.811.144L8.8 8.713a14.03 14.03 0 0 1 14.696-1.166c2.319 1.19 4.265 3 5.625 5.234a14.3 14.3 0 0 1 2.079 7.421z"/></svg>