<svg xmlns="http://www.w3.org/2000/svg" width="48" height="48" fill="none" viewBox="0 0 32 32"><path fill="url(#a)" d="M23.53 0H8.47A8.47 8.47 0 0 0 0 8.47v15.06A8.47 8.47 0 0 0 8.47 32h15.06A8.47 8.47 0 0 0 32 23.53V8.47A8.47 8.47 0 0 0 23.53 0"/><path fill="#111214" d="M22.743 1.672H9.257a7.586 7.586 0 0 0-7.585 7.585v13.486a7.586 7.586 0 0 0 7.585 7.585h13.486a7.586 7.586 0 0 0 7.585-7.585V9.257a7.586 7.586 0 0 0-7.585-7.585"/><path fill="#fff" d="M19.565 7.546a.64.64 0 0 0-.509-.26h-3.633a.62.62 0 0 0-.446.184.62.62 0 0 0-.063.808l5.296 7.355a.63.63 0 0 1 0 .732l-5.296 7.356a.626.626 0 0 0 .509.993h3.632a.62.62 0 0 0 .509-.26l5.82-8.089a.63.63 0 0 0 0-.732zM9.302 24.714h3.322a.626.626 0 0 0 .627-.627V7.912a.626.626 0 0 0-.627-.627H9.302a.626.626 0 0 0-.626.627v16.175a.626.626 0 0 0 .626.627"/><defs><linearGradient id="a" x1="0" x2="32" y1="32" y2="0" gradientUnits="userSpaceOnUse"><stop stop-color="#ff9737"/><stop offset=".25" stop-color="#fa636b"/><stop offset=".505" stop-color="#b353ff"/><stop offset=".755" stop-color="#7056ff"/><stop offset="1" stop-color="#5884ff"/></linearGradient></defs></svg>