<svg xmlns="http://www.w3.org/2000/svg" width="800" height="800" viewBox="0 0 73 73"><title>build-tools/prettier</title><g fill="none"><rect width="71" height="71" x="-1" y="-1" fill="#fff" stroke="#b33f3f" stroke-width="2" rx="14" transform="translate(2 2)"/><g transform="translate(15 56.905)"><rect width="12.571" height="2.095" x="31.429" fill="#cfd4d7" opacity=".5" rx="1.048"/><rect width="14.667" height="2.095" x="14.667" fill="#cfd4d7" opacity=".5" rx="1.048"/><rect width="12.571" height="2.095" fill="#ea5e5e" rx="1.048"/></g><g transform="translate(15 52.714)"><rect width="10.476" height="2.095" x="33.524" fill="#cfd4d7" opacity=".5" rx="1.048"/><rect width="4.19" height="2.095" x="27.238" fill="#cfd4d7" opacity=".5" rx="1.048"/><rect width="10.476" height="2.095" x="14.667" fill="#cfd4d7" opacity=".5" rx="1.048"/><rect width="4.19" height="2.095" x="8.381" fill="#f7b93e" rx="1.048"/><rect width="6.286" height="2.095" fill="#56b3b4" rx="1.048"/></g><g transform="translate(15 48.524)"><rect width="20.952" height="2.095" x="23.048" fill="#cfd4d7" opacity=".5" rx="1.048"/><rect width="6.286" height="2.095" x="14.667" fill="#cfd4d7" opacity=".5" rx="1.048"/><rect width="12.571" height="2.095" fill="#bf85bf" rx="1.048"/></g><g transform="translate(15 44.333)"><rect width="6.286" height="2.095" x="37.714" fill="#cfd4d7" opacity=".5" rx="1.048"/><rect width="6.286" height="2.095" x="29.333" fill="#cfd4d7" opacity=".5" rx="1.048"/><rect width="20.952" height="2.095" x="6.286" fill="#f7b93e" rx="1.048"/><rect width="4.19" height="2.095" fill="#bf85bf" rx="1.048"/></g><g transform="translate(15 40.143)"><rect width="8.381" height="2.095" x="35.619" fill="#cfd4d7" opacity=".5" rx="1.048"/><rect width="8.381" height="2.095" x="25.143" fill="#bf85bf" rx="1.048"/><rect width="10.476" height="2.095" x="12.571" fill="#ea5e5e" rx="1.048"/><rect width="10.476" height="2.095" fill="#56b3b4" rx="1.048"/></g><g transform="translate(15 35.952)"><rect width="6.286" height="2.095" x="37.714" fill="#cfd4d7" opacity=".5" rx="1.048"/><rect width="18.857" height="2.095" x="16.762" fill="#56b3b4" rx="1.048"/><rect width="8.381" height="2.095" x="6.286" fill="#f7b93e" rx="1.048"/><rect width="4.19" height="2.095" fill="#ea5e5e" rx="1.048"/></g><g transform="translate(15 31.762)"><rect width="4.19" height="2.095" x="39.81" fill="#cfd4d7" opacity=".5" rx="1.048"/><rect width="12.571" height="2.095" x="25.143" fill="#f7b93e" rx="1.048"/><rect width="8.381" height="2.095" x="14.667" fill="#cfd4d7" opacity=".5" rx="1.048"/><rect width="12.571" height="2.095" fill="#bf85bf" rx="1.048"/></g><g transform="translate(15 27.571)"><rect width="4.19" height="2.095" x="39.81" fill="#cfd4d7" opacity=".5" rx="1.048"/><rect width="12.571" height="2.095" x="25.143" fill="#ea5e5e" rx="1.048"/><rect width="8.381" height="2.095" x="14.667" fill="#cfd4d7" opacity=".5" rx="1.048"/><rect width="4.19" height="2.095" x="8.381" fill="#56b3b4" rx="1.048"/><rect width="6.286" height="2.095" fill="#f7b93e" rx="1.048"/></g><g transform="translate(15 23.381)"><rect width="6.286" height="2.095" x="37.714" fill="#cfd4d7" opacity=".5" rx="1.048"/><rect width="4.19" height="2.095" x="31.429" fill="#56b3b4" rx="1.048"/><rect width="10.476" height="2.095" x="18.857" fill="#bf85bf" rx="1.048"/><rect width="16.762" height="2.095" fill="#56b3b4" rx="1.048"/></g><g transform="translate(15 19.19)"><rect width="8.381" height="2.095" x="35.619" fill="#cfd4d7" opacity=".5" rx="1.048"/><rect width="23.048" height="2.095" x="10.476" fill="#f7b93e" rx="1.048"/><rect width="8.381" height="2.095" fill="#ea5e5e" rx="1.048"/></g><g transform="translate(15 15)"><rect width="14.667" height="2.095" x="29.333" fill="#cfd4d7" opacity=".5" rx="1.048"/><rect width="27.238" height="2.095" fill="#56b3b4" rx="1.048"/></g></g></svg>