<svg xmlns="http://www.w3.org/2000/svg" fill="none" viewBox="0 0 512 512"><g clip-path="url(#a)"><g clip-path="url(#b)"><path fill="currentColor" fill-rule="evenodd" d="M507.307 106.752h-4.864a46.65 46.65 0 0 0-43.025 28.969 46.7 46.7 0 0 0-3.482 17.879v104.789c0 20.907-17.152 37.867-37.547 37.867a38.78 38.78 0 0 1-31.402-16.491l-106.07-152.832a46.87 46.87 0 0 0-38.613-20.266c-24.192 0-45.952 20.736-45.952 46.357v105.387c0 20.906-17.003 37.866-37.547 37.866-12.16 0-24.234-6.165-31.402-16.49L8.704 108.757C6.016 104.917 0 106.816 0 111.531v91.392c0 4.608 1.408 9.088 4.01 12.885l116.801 168.299c6.912 9.941 17.066 17.322 28.821 20.01 29.376 6.742 56.427-16.085 56.427-45.162V253.653c0-20.906 16.789-37.866 37.546-37.866h.043c12.501 0 24.213 6.144 31.403 16.49L381.12 385.088a45.87 45.87 0 0 0 38.613 20.267c24.704 0 45.888-20.758 45.888-46.358V253.632c0-20.907 16.79-37.867 37.547-37.867h4.139c2.602 0 4.693-2.133 4.693-4.736v-99.562a4.7 4.7 0 0 0-1.366-3.34 4.7 4.7 0 0 0-3.327-1.396z" clip-rule="evenodd"/></g></g><defs><clipPath id="a"><path fill="#fff" d="M0 0h512v512H0z"/></clipPath><clipPath id="b"><path fill="#fff" d="M0 0h512v512H0z"/></clipPath></defs></svg>